<?xml version="1.0" standalone="no"?>
<!DOCTYPE svg PUBLIC "-//W3C//DTD SVG 20010904//EN"
 "http://www.w3.org/TR/2001/REC-SVG-20010904/DTD/svg10.dtd">
<svg version="1.0" xmlns="http://www.w3.org/2000/svg"
 width="1200.000000pt" height="1200.000000pt" viewBox="0 0 1200.000000 1200.000000"
 preserveAspectRatio="xMidYMid meet">
<metadata>
Created by potrace 1.11, written by Peter Selinger 2001-2013
</metadata>
<g transform="translate(0.000000,1200.000000) scale(0.100000,-0.100000)"
fill="#000000" stroke="none">
<path d="M5400 11113 c-19 -2 -68 -10 -109 -18 -40 -8 -90 -15 -112 -15 -103
0 -386 -74 -556 -145 -45 -19 -86 -35 -91 -35 -10 0 -220 -107 -239 -122 -6
-5 -46 -28 -90 -52 -121 -66 -233 -138 -330 -211 -107 -81 -114 -86 -233 -171
-125 -90 -319 -261 -510 -453 -243 -244 -277 -284 -377 -444 -18 -29 -64 -99
-104 -157 -39 -58 -81 -120 -92 -139 -12 -19 -46 -73 -76 -120 -65 -105 -190
-346 -226 -438 -15 -38 -33 -78 -41 -91 -8 -12 -28 -59 -45 -105 -16 -45 -38
-100 -48 -122 -10 -22 -31 -74 -45 -115 -15 -41 -36 -94 -47 -116 -33 -70 -72
-233 -130 -544 -10 -51 -16 -60 -97 -137 -91 -86 -213 -177 -321 -239 -54 -31
-61 -38 -46 -47 23 -12 179 -2 298 19 48 9 90 14 93 11 3 -3 -1 -40 -10 -82
-9 -43 -16 -90 -16 -105 0 -16 -4 -31 -9 -34 -19 -12 -37 -200 -47 -471 -3
-99 -8 -184 -11 -188 -9 -15 -4 -597 7 -776 10 -165 34 -358 50 -396 15 -35
29 -88 51 -190 41 -195 100 -348 247 -640 25 -49 53 -107 64 -128 16 -33 79
-135 156 -252 204 -311 781 -774 1117 -895 281 -101 316 -110 597 -150 160
-23 430 -28 501 -9 23 6 57 24 75 40 30 27 39 29 112 29 44 0 80 -4 80 -9 0
-5 -44 -34 -97 -65 -165 -95 -229 -138 -331 -222 -24 -20 -25 -24 -14 -45 48
-88 271 -289 415 -374 27 -15 85 -52 128 -81 307 -204 741 -344 1067 -344
l105 0 -7 -38 c-31 -181 -31 -353 -2 -477 28 -115 57 -210 78 -255 24 -50 88
-162 97 -170 3 -3 19 -23 36 -45 38 -51 95 -106 105 -100 4 3 -5 55 -21 117
-36 147 -62 288 -57 317 2 19 12 8 51 -57 48 -82 130 -166 237 -246 178 -132
306 -176 510 -176 65 0 125 3 134 6 29 11 17 42 -26 72 -114 79 -348 400 -373
511 -6 30 -3 37 39 76 55 53 151 100 311 154 66 21 152 54 190 71 39 18 105
47 147 65 125 53 254 169 401 357 45 58 69 80 96 89 152 47 301 121 404 198
44 33 147 158 147 178 0 5 39 17 88 26 140 29 237 83 352 198 20 20 41 38 46
40 5 2 31 36 57 75 47 71 96 113 212 179 59 34 199 174 261 261 108 151 213
373 248 522 17 72 72 184 164 331 88 141 116 199 152 316 17 55 39 123 50 152
35 93 64 225 117 528 26 153 6 1024 -26 1145 -6 19 -19 107 -31 195 -21 160
-39 274 -66 415 -8 41 -23 125 -34 185 -10 61 -30 140 -43 177 -14 37 -23 69
-20 72 6 6 111 -30 138 -48 44 -29 122 -47 238 -56 66 -5 133 -6 148 -3 38 7
38 36 0 60 -128 81 -280 224 -384 362 -55 72 -188 294 -229 381 -56 121 -87
190 -98 225 -7 22 -21 57 -32 78 -10 21 -28 68 -40 105 -11 37 -33 92 -48 122
-15 30 -35 80 -45 110 -10 30 -25 69 -35 85 -10 17 -29 63 -44 102 -14 40 -43
103 -64 140 -45 82 -122 239 -122 252 0 5 -7 15 -16 22 -9 7 -26 36 -39 64
-12 27 -50 102 -85 165 -34 63 -75 138 -90 165 -23 43 -58 97 -147 225 -10 14
-49 61 -88 106 -38 44 -88 102 -110 129 -33 39 -119 118 -310 283 -11 10 -40
33 -65 52 -25 19 -49 40 -53 47 -4 7 -13 13 -18 13 -6 0 -43 22 -82 48 -200
134 -284 184 -483 288 -425 223 -618 289 -1019 348 -141 21 -262 35 -350 42
-38 2 -122 9 -185 14 -107 9 -851 11 -930 3z m1205 -193 c330 -34 465 -54 465
-71 0 -4 10 -5 22 -1 13 3 19 1 15 -5 -5 -7 1 -9 15 -5 17 4 20 2 14 -13 -5
-14 -4 -16 7 -7 8 7 17 9 20 5 4 -3 20 -8 36 -9 16 -2 41 -9 57 -15 16 -7 37
-14 46 -15 27 -6 163 -68 166 -76 2 -5 8 -6 13 -3 4 3 23 -2 41 -12 18 -9 36
-16 41 -15 4 1 7 -3 7 -8 0 -5 3 -9 8 -8 12 3 81 -35 77 -42 -3 -4 7 -7 21 -7
15 0 30 -7 35 -14 4 -8 14 -14 21 -15 19 -1 112 -45 116 -55 2 -5 8 -7 13 -3
5 3 9 0 9 -6 0 -6 4 -9 9 -6 5 3 28 -9 52 -28 24 -18 54 -36 67 -40 12 -4 19
-12 16 -18 -5 -7 -2 -8 5 -3 7 4 22 -1 34 -13 12 -10 41 -30 65 -44 23 -13 39
-28 35 -33 -5 -4 -2 -5 4 -1 7 4 18 2 25 -3 55 -45 78 -62 81 -59 6 5 127 -85
127 -94 0 -5 3 -7 8 -7 20 3 31 -3 37 -21 3 -11 9 -19 13 -17 12 4 82 -42 82
-53 0 -6 5 -8 12 -4 8 5 9 2 4 -12 -4 -10 -4 -15 0 -11 8 8 57 -25 100 -67 17
-17 41 -38 54 -47 13 -8 23 -23 23 -32 0 -9 6 -17 14 -17 7 0 13 -5 13 -12 0
-6 3 -8 7 -5 9 9 63 -43 63 -60 0 -7 9 -17 20 -23 11 -6 26 -23 34 -38 8 -15
29 -42 46 -59 18 -18 29 -33 25 -33 -4 0 5 -14 19 -31 14 -17 23 -36 19 -42
-3 -7 -3 -9 2 -5 8 8 75 -82 75 -100 0 -5 11 -19 25 -32 19 -18 22 -26 13 -32
-9 -5 -8 -8 5 -8 15 0 19 -6 16 -26 0 -4 4 -10 9 -13 6 -3 12 -13 14 -20 2 -8
11 -23 21 -33 10 -10 15 -24 11 -30 -4 -6 -3 -8 3 -5 10 6 48 -60 55 -94 2 -7
11 -21 21 -31 16 -16 57 -100 57 -114 0 -3 -5 -2 -12 2 -7 4 -8 3 -4 -5 4 -6
11 -9 16 -6 13 8 113 -203 107 -226 -3 -12 -1 -17 6 -12 6 4 8 0 4 -10 -3 -9
-2 -16 4 -14 5 1 16 -13 24 -30 16 -37 7 -43 -20 -13 -10 11 -14 20 -9 20 5 0
5 4 -1 8 -16 11 -100 114 -120 147 -11 17 -29 41 -42 54 -12 13 -20 27 -18 31
3 5 2 10 -2 12 -5 1 -20 19 -35 39 -25 34 -26 37 -10 54 16 18 16 18 -1 5 -17
-12 -21 -11 -37 10 -10 14 -17 26 -16 28 2 1 -12 18 -31 38 -18 20 -31 40 -27
45 3 5 0 8 -8 7 -7 -2 -12 5 -11 15 0 10 -1 16 -4 14 -9 -9 -84 76 -79 90 3 7
2 12 -2 10 -13 -4 -56 36 -96 88 -21 28 -40 49 -42 47 -3 -1 -17 12 -32 30
-15 18 -86 91 -159 162 -73 71 -129 134 -126 139 4 6 1 7 -6 3 -15 -10 -53 23
-44 37 3 5 2 7 -4 4 -13 -8 -95 62 -87 74 3 5 2 8 -3 7 -15 -4 -72 32 -83 53
-6 11 -22 24 -36 29 -14 6 -22 14 -19 20 3 5 0 7 -8 4 -9 -3 -26 8 -42 28 -15
18 -24 26 -19 18 4 -8 -6 -3 -22 11 -16 15 -44 34 -61 43 -18 9 -33 20 -33 25
0 8 -68 55 -147 102 -24 14 -41 28 -39 30 3 3 -4 5 -14 6 -11 1 -29 11 -41 22
-12 11 -41 29 -64 40 -23 11 -49 26 -56 33 -18 16 -118 78 -127 78 -4 0 -14 9
-22 19 -7 11 -17 18 -21 16 -10 -7 -119 45 -119 56 0 6 -4 7 -10 4 -5 -3 -10
-2 -10 4 0 6 -12 14 -26 17 -18 5 -23 11 -19 23 5 12 3 13 -5 5 -13 -13 -70 3
-70 19 0 4 -5 5 -10 2 -6 -4 -22 0 -35 9 -13 9 -31 16 -40 16 -9 0 -14 4 -11
9 4 5 -4 7 -16 3 -16 -4 -19 -2 -13 8 5 8 4 11 -3 6 -6 -3 -39 3 -74 15 -35
12 -67 22 -73 23 -5 2 -22 9 -37 16 -23 11 -26 16 -16 29 9 11 5 10 -9 -2 -13
-12 -27 -16 -35 -11 -17 11 -29 13 -110 21 -59 5 -68 4 -68 -11 0 -14 5 -17
25 -16 3 1 18 -6 33 -14 23 -14 137 -48 210 -63 12 -3 22 -10 22 -15 0 -5 4
-7 9 -3 5 3 31 -6 57 -20 26 -14 53 -25 61 -25 8 0 11 -4 8 -10 -3 -5 0 -7 8
-4 8 3 17 -2 21 -11 3 -9 10 -14 16 -10 10 6 102 -42 108 -57 2 -5 8 -5 13 -2
11 6 56 -20 77 -45 8 -9 10 -10 7 -3 -4 8 10 2 31 -12 22 -14 56 -33 77 -42
20 -9 37 -19 37 -23 0 -4 28 -22 62 -40 34 -19 71 -42 82 -53 12 -11 37 -28
56 -38 19 -10 45 -26 57 -37 12 -10 36 -26 53 -35 17 -10 29 -22 25 -28 -3 -5
0 -7 8 -4 8 3 23 -6 35 -20 11 -14 25 -26 32 -26 6 0 9 -4 6 -9 -3 -5 7 -11
23 -14 16 -4 43 -19 59 -34 45 -43 70 -62 75 -57 2 2 12 -6 23 -18 10 -12 13
-18 7 -14 -7 4 -13 2 -13 -3 0 -6 11 -11 24 -11 14 0 40 -14 60 -34 20 -18 36
-32 36 -31 0 1 21 -18 48 -42 26 -25 67 -64 91 -86 25 -23 41 -35 37 -27 -4 8
0 6 8 -4 13 -16 13 -22 3 -35 -11 -14 -10 -14 6 -1 17 13 21 12 37 -10 11 -14
25 -25 32 -25 7 -1 12 -6 10 -13 -1 -7 4 -12 12 -12 7 0 21 -11 30 -25 9 -14
20 -24 24 -21 4 2 13 -2 20 -10 7 -8 11 -14 8 -14 -3 0 34 -41 82 -90 100
-104 160 -170 155 -170 -2 0 27 -32 64 -70 36 -39 73 -80 81 -93 9 -12 28 -34
44 -48 15 -14 28 -31 28 -37 0 -7 4 -12 9 -12 5 0 24 -18 42 -41 29 -37 31
-43 19 -63 -11 -18 -11 -19 1 -9 17 14 35 -2 82 -76 16 -24 35 -50 43 -58 8
-8 14 -18 14 -23 0 -5 10 -18 22 -30 12 -11 19 -20 15 -20 -4 0 9 -17 29 -37
20 -21 43 -55 52 -75 9 -21 23 -38 31 -38 11 0 11 -3 1 -15 -11 -13 -10 -14 2
-10 18 7 54 -67 43 -86 -5 -7 -4 -10 3 -5 12 7 48 -37 81 -99 26 -49 44 -78
52 -85 4 -3 17 -25 29 -50 13 -25 31 -56 41 -69 10 -13 16 -27 13 -32 -3 -5
-1 -9 5 -9 5 0 22 -33 37 -72 15 -40 33 -80 40 -88 17 -22 45 -80 39 -80 -4 0
1 -7 9 -16 9 -8 16 -22 16 -30 0 -8 4 -14 9 -14 5 0 12 -7 15 -16 5 -12 2 -15
-9 -10 -9 3 -13 2 -10 -4 3 -6 12 -10 19 -10 7 0 25 -27 41 -60 16 -33 33 -60
37 -60 5 0 6 -4 3 -10 -3 -5 -2 -10 4 -10 9 0 21 -25 21 -43 0 -4 4 -13 10
-20 57 -69 84 -105 96 -129 8 -15 20 -28 26 -28 6 0 9 -3 6 -6 -3 -3 4 -16 16
-29 11 -12 29 -37 39 -54 18 -31 18 -31 -3 -31 -13 0 -19 4 -14 12 4 7 3 8 -5
4 -7 -5 -38 8 -72 28 -33 20 -63 36 -65 36 -10 0 -33 28 -28 33 3 3 -3 3 -14
1 -15 -4 -23 4 -39 38 -12 24 -32 54 -45 68 -13 14 -39 54 -57 90 -19 36 -42
76 -51 90 -16 23 -29 55 -30 72 0 4 -11 18 -23 32 -29 31 -89 145 -82 156 3 5
0 12 -6 16 -8 4 -9 3 -5 -4 4 -7 2 -12 -3 -12 -6 0 -11 5 -11 11 0 5 -19 37
-41 71 -23 33 -55 90 -71 127 -27 58 -41 80 -88 138 -6 7 -10 19 -10 27 0 8
-5 18 -11 22 -12 7 -69 126 -69 144 0 29 -133 277 -160 298 -17 13 -30 29 -30
36 0 7 -11 26 -25 42 -14 16 -25 34 -25 40 0 6 -9 23 -21 38 -11 14 -21 34
-22 45 0 10 -6 17 -12 15 -5 -2 -21 13 -35 33 -14 21 -35 46 -48 56 -12 10
-19 24 -15 30 3 7 3 9 -2 5 -11 -11 -36 12 -28 25 3 6 1 7 -5 3 -7 -4 -12 -3
-12 2 0 6 -7 12 -15 16 -11 4 -14 -1 -13 -19 1 -13 7 -21 12 -18 6 4 6 -1 2
-13 -4 -10 -4 -15 0 -11 8 7 60 -72 56 -85 -1 -5 3 -7 9 -5 20 4 125 -185 113
-204 -3 -5 -1 -9 3 -9 8 0 28 -43 30 -64 1 -5 5 -12 10 -15 11 -8 88 -231 124
-361 17 -58 38 -132 48 -165 11 -33 31 -114 45 -180 15 -66 32 -130 38 -142 6
-12 8 -29 5 -37 -4 -9 -3 -16 1 -16 8 0 32 -266 30 -325 -1 -16 4 -79 11 -140
12 -110 15 -263 12 -595 -1 -162 -8 -250 -32 -405 -5 -33 -12 -85 -15 -115 -9
-82 -17 -76 -12 8 3 39 2 72 -3 72 -4 0 -10 26 -14 58 -11 104 -27 217 -32
232 -4 8 -7 26 -9 40 -1 14 -5 50 -8 80 -4 30 -13 80 -20 110 -8 30 -17 87
-21 125 -16 174 -53 397 -70 424 -3 6 -12 43 -20 83 -23 119 -26 132 -40 163
-7 17 -19 45 -25 62 -20 55 -32 27 -26 -65 9 -149 34 -431 40 -441 3 -4 10
-69 16 -142 13 -175 -2 -542 -29 -705 -32 -190 -43 -248 -49 -264 -3 -8 -6
-22 -7 -30 -4 -60 -20 -149 -32 -179 -31 -76 -38 -91 -45 -91 -5 0 -8 -4 -8
-8 0 -17 -98 -183 -119 -201 -11 -10 -21 -23 -21 -29 0 -5 -21 -36 -46 -67
-34 -41 -49 -53 -58 -46 -19 16 -27 1 -10 -17 14 -13 12 -18 -13 -41 -16 -14
-39 -41 -52 -60 -42 -59 -246 -251 -267 -251 -4 0 -15 -6 -23 -14 -18 -16
-138 -82 -221 -122 -30 -14 -74 -35 -98 -46 -23 -12 -45 -18 -49 -15 -3 4 2 9
11 13 9 3 16 16 16 28 0 12 5 27 10 32 6 6 19 26 29 45 10 19 28 39 40 44 14
6 20 16 17 27 -2 10 0 21 5 24 5 3 7 9 4 13 -4 7 9 46 46 139 7 17 17 32 21
32 4 0 8 9 8 20 0 11 4 20 9 20 5 0 7 8 5 18 -3 9 9 59 25 110 17 52 31 103
31 114 0 10 4 27 10 37 5 10 11 43 14 72 4 53 20 164 30 206 6 28 14 114 21
238 4 55 10 132 15 170 12 90 12 828 0 920 -5 39 -14 97 -20 130 -21 114 -39
230 -46 295 -3 36 -10 74 -14 85 -4 12 -11 52 -14 89 -8 82 -9 90 -16 96 -5 5
-24 65 -40 130 -19 78 -45 165 -50 170 -3 3 -14 30 -23 60 -10 30 -21 61 -24
68 -2 6 2 12 11 12 9 0 18 -13 22 -37 4 -20 13 -48 20 -62 8 -14 14 -31 14
-37 0 -15 43 -64 57 -64 18 0 20 31 6 90 -8 30 -19 73 -24 95 -5 22 -14 61
-20 87 -5 26 -18 66 -29 89 -10 23 -16 48 -13 56 3 7 0 13 -5 13 -6 0 -18 26
-27 58 -22 77 -68 196 -77 200 -5 2 -8 9 -8 15 0 7 -12 37 -27 67 -14 30 -30
63 -35 72 -4 10 -8 24 -8 32 0 8 -6 19 -14 23 -8 4 -16 22 -18 38 -1 17 -8 29
-14 28 -18 -3 -38 24 -84 112 -23 44 -46 85 -52 92 -5 7 -7 17 -3 23 3 5 2 10
-3 10 -6 0 -13 11 -16 25 -4 14 -12 25 -19 25 -7 0 -29 25 -48 56 -18 31 -39
61 -45 68 -6 7 -14 21 -18 33 -4 11 -19 34 -35 50 -15 16 -34 44 -42 61 -8 18
-17 32 -21 32 -5 0 -8 7 -8 16 0 8 -4 12 -10 9 -5 -3 -10 -2 -10 2 0 10 -21
38 -67 91 -18 20 -36 46 -39 56 -4 11 -19 30 -35 44 -16 13 -29 28 -29 34 0 5
-6 15 -12 22 -33 34 -58 67 -58 76 0 6 -4 10 -10 10 -5 0 -10 7 -10 15 0 8 -6
15 -14 15 -8 0 -16 4 -18 9 -4 11 -97 119 -120 140 -10 8 -18 23 -18 33 0 10
-4 17 -8 15 -10 -2 -202 187 -202 200 -1 4 -19 20 -40 35 -22 15 -40 34 -40
43 0 8 -6 12 -14 9 -9 -3 -17 3 -21 15 -3 11 -11 20 -18 18 -6 -1 -11 5 -12
13 0 8 -9 15 -20 16 -43 2 -51 5 -85 34 -19 16 -38 30 -42 30 -4 0 -17 10 -29
23 -12 12 -18 15 -14 7 8 -13 7 -13 -11 0 -35 27 -43 38 -36 45 4 4 2 5 -3 3
-15 -5 -95 24 -90 33 3 4 -3 5 -14 2 -10 -3 -22 0 -25 6 -4 5 -13 8 -21 4 -8
-3 -15 -1 -15 5 0 5 -11 8 -24 7 -14 -2 -27 2 -29 8 -6 15 -124 14 -139 -1 -8
-8 -17 -8 -31 -1 -12 7 -17 7 -13 1 7 -12 -22 -25 -36 -15 -6 3 -8 1 -5 -4 4
-6 -10 -18 -32 -27 -22 -8 -51 -27 -65 -41 -15 -14 -31 -23 -38 -19 -6 4 -8 3
-5 -3 8 -13 -17 -36 -27 -25 -4 4 -6 0 -4 -8 2 -8 -3 -14 -10 -12 -8 1 -11 -2
-7 -8 8 -12 -44 -57 -60 -52 -5 2 -7 0 -3 -4 11 -10 -60 -77 -73 -69 -6 4 -8
13 -5 21 6 16 -10 29 -19 15 -3 -6 -12 -8 -20 -5 -8 4 -12 11 -8 17 3 6 1 7
-5 3 -6 -4 -19 -3 -29 3 -10 5 -35 17 -55 27 -20 10 -35 21 -32 25 2 4 -5 5
-16 2 -12 -3 -26 1 -33 10 -22 28 -287 107 -360 107 -24 0 -65 -6 -90 -14 -26
-8 -47 -12 -47 -9 0 3 -6 1 -12 -5 -7 -5 -37 -15 -66 -21 -71 -15 -176 -51
-183 -63 -3 -5 -12 -10 -20 -12 -8 -1 -35 -12 -61 -23 -25 -12 -56 -24 -67
-28 -12 -3 -21 -11 -21 -16 0 -6 -4 -7 -10 -4 -5 3 -10 2 -10 -3 0 -5 -20 -17
-45 -26 -25 -10 -45 -21 -45 -26 0 -10 -40 -25 -55 -21 -5 1 -7 -1 -2 -5 10
-11 -75 -65 -93 -58 -8 3 -11 2 -8 -2 14 -14 -104 -100 -122 -89 -6 3 -7 -1
-4 -9 6 -15 -11 -22 -39 -17 -5 1 -6 -3 -3 -8 4 -5 -8 -20 -26 -32 -18 -13
-41 -34 -51 -46 -10 -13 -23 -21 -28 -17 -5 3 -8 0 -7 -8 2 -7 -3 -12 -9 -10
-7 1 -13 -2 -13 -8 0 -5 -7 -10 -15 -10 -8 0 -15 -5 -15 -11 0 -12 -27 -39
-105 -104 -26 -22 -73 -67 -104 -99 -111 -116 -166 -171 -200 -198 -18 -16
-31 -28 -27 -28 3 0 -2 -9 -11 -20 -10 -11 -21 -20 -26 -20 -11 0 -28 -18 -50
-52 -10 -16 -24 -28 -32 -28 -8 0 -15 -4 -15 -10 0 -5 -10 -19 -22 -31 -13
-12 -16 -19 -8 -15 8 4 6 -1 -6 -11 -11 -10 -38 -43 -59 -73 -92 -131 -110
-155 -118 -161 -5 -3 -8 -9 -7 -13 1 -4 -12 -23 -29 -42 -17 -19 -29 -34 -26
-34 3 0 -2 -11 -11 -25 -9 -14 -20 -23 -24 -20 -5 3 -12 0 -16 -6 -4 -8 -3 -9
4 -5 7 4 12 2 12 -3 0 -6 -4 -11 -9 -11 -5 0 -14 -13 -21 -30 -7 -16 -16 -30
-21 -30 -5 0 -9 -8 -9 -19 0 -10 -11 -30 -25 -45 -14 -15 -25 -34 -25 -42 0
-8 -4 -12 -10 -9 -5 3 -10 1 -10 -4 0 -6 0 -13 0 -16 -1 -2 -36 -73 -79 -157
-43 -84 -88 -186 -100 -226 -12 -39 -33 -93 -46 -119 -14 -25 -25 -52 -25 -59
0 -7 -7 -20 -16 -28 -8 -9 -13 -16 -9 -16 3 0 -2 -14 -10 -30 -9 -18 -21 -28
-27 -24 -6 4 -8 3 -5 -4 14 -22 -101 -240 -118 -225 -4 5 -5 3 -1 -4 8 -14
-14 -64 -25 -57 -5 3 -9 -1 -9 -8 0 -23 -65 -118 -77 -113 -7 2 -12 -1 -10 -8
1 -7 -4 -11 -11 -9 -8 1 -11 -2 -7 -7 7 -12 -20 -58 -49 -84 -12 -10 -14 -15
-6 -11 8 5 -16 -22 -54 -59 -38 -37 -75 -66 -81 -63 -6 2 -12 -6 -12 -17 -2
-24 -42 -59 -57 -50 -5 3 -6 2 -3 -4 4 -6 -1 -19 -9 -29 -14 -18 -15 -17 -10
15 3 18 6 44 6 58 0 16 4 22 12 17 7 -5 8 -3 4 5 -10 16 2 83 14 76 4 -3 6 4
3 15 -3 11 0 20 6 20 5 0 8 6 5 14 -6 17 41 107 52 98 4 -4 4 -1 0 6 -8 14 18
116 38 147 11 18 26 62 25 75 -1 10 52 145 71 181 10 21 25 59 34 85 30 98 78
202 98 215 5 3 9 9 9 13 -3 19 0 27 8 21 6 -3 8 4 6 15 -2 11 0 20 5 20 5 0
14 16 20 35 6 19 15 35 19 35 4 0 8 6 8 13 0 30 37 107 51 107 8 0 12 3 9 7
-4 3 -2 12 4 20 6 7 9 13 5 13 -3 0 5 18 19 40 14 22 25 44 25 50 0 5 4 10 8
10 5 0 15 11 22 25 7 13 17 22 21 19 5 -3 6 2 3 10 -3 8 4 24 15 35 12 12 21
22 20 24 -2 9 14 36 20 32 4 -2 8 2 8 10 0 19 46 105 56 105 5 0 6 4 2 9 -3 5
-1 12 5 16 5 3 10 0 10 -7 0 -7 9 5 20 27 27 56 46 78 61 69 8 -4 10 -3 5 5
-9 13 11 47 49 85 14 14 23 26 20 26 -3 0 11 18 32 41 21 22 38 44 38 47 0 4
4 13 9 20 6 11 11 11 24 0 13 -11 14 -11 8 0 -11 18 21 52 42 45 10 -3 13 -1
7 4 -20 16 -14 31 25 62 22 18 40 37 40 42 0 14 92 105 103 101 4 -1 6 2 3 7
-3 5 9 18 27 30 17 11 28 21 23 21 -15 0 36 50 51 50 7 0 20 11 28 24 9 13 36
36 60 52 25 15 45 34 45 42 0 7 5 10 10 7 6 -3 10 -2 10 4 0 5 8 12 18 15 9 3
35 22 57 42 22 20 60 50 85 67 25 17 56 41 69 54 18 17 32 23 50 19 15 -3 20
-3 12 1 -9 4 -2 15 25 39 35 32 47 38 67 35 4 0 6 2 5 6 -2 5 1 10 7 13 5 3
22 18 38 33 16 16 35 26 44 23 8 -3 11 -1 8 4 -6 9 8 14 28 11 4 0 7 3 7 9 0
5 6 10 14 10 8 0 21 8 28 19 7 10 21 17 31 15 9 -1 15 2 11 7 -3 5 -3 9 0 9 2
0 12 3 22 7 13 5 15 3 9 -7 -5 -9 -4 -11 4 -6 6 4 9 12 6 17 -4 5 7 14 22 21
15 6 39 21 52 32 13 12 21 15 16 7 -4 -7 9 -2 30 12 21 14 42 24 47 21 4 -3 8
0 8 6 0 6 5 8 10 5 6 -3 10 -2 10 4 0 5 14 12 30 16 17 4 30 10 30 15 0 4 35
21 78 36 42 15 92 36 110 46 18 10 38 18 44 18 6 0 39 11 73 24 33 14 76 28
94 31 19 3 43 11 54 16 11 6 34 8 51 5 20 -4 26 -3 17 3 -17 11 62 26 80 15 7
-4 9 -3 6 3 -4 6 7 13 26 17 17 3 41 8 52 10 31 6 265 25 385 32 428 23 875
25 1075 4z m-1210 -310 c25 -7 91 -18 118 -20 4 0 6 -5 5 -12 -2 -6 17 -22 42
-35 25 -13 44 -28 42 -34 -1 -6 1 -8 5 -6 5 3 31 1 58 -4 81 -16 106 -18 100
-9 -3 5 10 12 30 16 19 3 38 10 41 16 9 14 242 8 328 -8 41 -8 87 -21 103 -29
15 -8 35 -15 43 -15 8 0 65 -26 125 -56 61 -31 137 -70 170 -86 33 -17 69 -39
80 -49 11 -10 36 -25 55 -34 31 -14 111 -70 134 -94 40 -43 151 -141 158 -141
4 0 8 -8 8 -18 0 -10 11 -22 24 -28 32 -12 216 -184 216 -201 0 -7 4 -13 8
-13 17 0 61 -46 122 -130 34 -46 69 -91 78 -100 10 -8 26 -32 36 -52 11 -21
22 -38 26 -38 8 0 23 -39 21 -52 -1 -5 3 -8 9 -8 10 0 50 -36 50 -45 0 -3 9
-16 20 -28 40 -44 131 -198 134 -228 1 -3 9 -14 19 -24 13 -13 17 -27 13 -46
-4 -23 -2 -27 12 -23 14 5 14 4 3 -4 -21 -15 -41 -3 -41 24 0 13 -5 24 -11 24
-6 0 -9 7 -5 15 3 8 1 15 -4 15 -5 0 -19 18 -30 39 -17 35 -39 69 -83 134 -6
10 -27 34 -45 54 -25 28 -36 33 -44 25 -9 -9 1 -38 43 -119 30 -60 57 -110 60
-113 14 -11 99 -266 124 -375 8 -33 21 -85 29 -115 7 -30 19 -82 26 -115 7
-33 19 -82 27 -110 8 -27 18 -70 23 -95 5 -25 20 -99 33 -165 35 -170 77 -441
88 -570 5 -60 13 -150 19 -200 11 -104 12 -381 1 -409 -7 -18 -9 -17 -32 7
-41 44 -48 54 -55 81 -3 15 -12 30 -19 34 -7 4 -23 27 -36 52 -13 25 -27 48
-32 51 -5 4 -14 15 -20 26 -40 65 -54 87 -74 111 -12 14 -30 42 -40 61 -10 20
-31 56 -48 81 -43 64 -54 82 -64 105 -5 12 -16 27 -25 34 -9 7 -16 22 -16 32
0 10 -5 21 -10 24 -12 8 -95 134 -112 169 -6 14 -15 26 -20 26 -4 0 -8 4 -8 9
0 12 -38 91 -60 126 -11 17 -22 37 -26 45 -3 8 -10 23 -15 32 -5 10 -9 23 -9
30 0 8 -11 22 -25 32 -14 10 -25 24 -25 31 0 7 -7 18 -15 25 -8 7 -15 20 -15
30 0 9 -11 29 -25 44 -13 14 -24 27 -23 29 0 1 -2 13 -7 26 -5 16 -10 20 -18
12 -11 -11 11 -97 44 -167 11 -23 32 -78 48 -121 16 -44 48 -119 71 -169 24
-49 47 -100 53 -114 5 -14 16 -37 23 -52 8 -14 14 -33 14 -42 0 -9 4 -16 9
-16 5 0 16 -19 26 -42 9 -24 27 -56 39 -73 12 -16 33 -55 46 -85 14 -30 27
-57 31 -60 3 -3 20 -30 37 -60 52 -89 116 -188 133 -209 10 -10 20 -29 24 -40
4 -12 18 -34 31 -49 29 -32 94 -128 94 -139 0 -5 12 -21 26 -38 14 -16 34 -47
45 -67 10 -20 24 -40 30 -43 6 -5 8 -22 3 -49 -3 -22 -8 -68 -9 -101 -1 -33
-10 -88 -20 -122 -17 -59 -19 -63 -44 -58 -14 2 -31 11 -37 20 -6 8 -20 15
-31 15 -10 0 -38 9 -61 20 -22 11 -46 20 -51 20 -6 0 -14 6 -18 13 -8 13 -73
47 -90 47 -6 0 -18 9 -28 20 -10 11 -27 22 -39 26 -11 3 -44 23 -71 44 -28 20
-60 40 -73 44 -12 4 -22 12 -22 17 0 5 -6 9 -14 9 -8 0 -26 14 -39 30 -14 17
-29 30 -32 30 -13 0 -93 61 -150 116 -146 139 -245 238 -269 267 -13 18 -50
59 -80 92 -31 33 -56 65 -56 70 0 6 -16 28 -35 50 -19 22 -41 53 -49 70 -8 16
-22 39 -30 50 -57 72 -143 219 -209 357 -92 192 -117 250 -117 270 0 11 -6 25
-13 33 -8 7 -20 42 -27 77 -8 35 -19 68 -26 73 -11 9 -19 30 -58 150 -9 28
-18 73 -20 101 -2 29 -6 56 -9 60 -2 5 -8 28 -12 52 -4 23 -10 42 -15 42 -4 0
-11 37 -15 83 -4 45 -11 88 -17 95 -6 7 -11 40 -12 75 -2 50 -5 63 -19 65 -13
3 -16 9 -12 23 4 10 2 19 -4 19 -5 0 -13 17 -16 38 -3 20 -10 60 -16 87 -6 28
-12 66 -14 85 -2 19 -9 69 -14 110 -6 41 -15 122 -21 180 -14 135 -18 150 -34
150 -20 0 -26 -56 -26 -268 0 -217 14 -412 35 -487 20 -70 47 -203 50 -245 2
-19 13 -69 24 -110 12 -41 30 -113 41 -160 24 -99 95 -322 116 -361 8 -16 17
-45 20 -66 3 -21 11 -47 17 -58 6 -11 9 -22 8 -25 -1 -3 4 -23 12 -45 8 -22
24 -74 37 -115 12 -41 34 -96 47 -123 15 -27 23 -56 20 -68 -3 -12 -3 -18 0
-15 7 7 33 -60 33 -87 0 -35 85 -317 116 -385 8 -18 13 -36 9 -41 -3 -5 1 -11
7 -14 8 -2 9 -8 4 -13 -5 -5 -11 -4 -13 4 -3 7 -19 30 -37 51 -18 21 -47 63
-66 92 -18 30 -43 70 -55 89 -78 125 -125 215 -120 229 3 8 3 12 -1 8 -8 -8
-73 89 -74 109 0 7 -6 14 -13 17 -11 4 -12 -3 -7 -31 4 -21 13 -50 20 -67 7
-16 16 -39 20 -50 33 -84 140 -283 185 -345 30 -41 66 -92 80 -112 14 -21 52
-72 84 -115 33 -42 57 -81 54 -86 -3 -6 -2 -7 4 -4 5 4 22 -6 36 -21 31 -32
128 -220 118 -226 -4 -3 -22 8 -39 24 -18 16 -32 27 -32 24 0 -13 -269 252
-311 307 -14 19 -32 45 -39 59 -7 14 -21 31 -32 38 -10 7 -18 18 -18 23 0 11
-67 112 -99 148 -12 13 -21 28 -21 33 0 5 -18 36 -40 68 -22 32 -40 62 -40 65
0 3 -5 11 -10 18 -35 42 -58 80 -106 177 -30 59 -54 111 -54 114 0 4 -11 23
-25 44 -13 20 -36 67 -49 104 -14 38 -30 76 -35 85 -42 79 -61 126 -55 135 4
6 3 8 -3 5 -6 -4 -16 12 -22 36 -7 23 -22 52 -33 64 -12 12 -18 29 -15 37 4 9
2 16 -3 16 -6 0 -10 8 -11 18 0 9 -16 49 -35 87 l-35 70 6 -70 c6 -66 19 -155
30 -200 16 -68 38 -135 54 -170 10 -22 22 -51 25 -65 14 -48 77 -183 89 -188
4 -2 7 -12 7 -22 0 -10 6 -25 13 -32 15 -16 58 -95 57 -105 0 -5 6 -15 14 -25
8 -9 12 -19 9 -22 -4 -3 -2 -6 3 -6 5 0 19 -19 31 -42 11 -24 33 -67 48 -95
14 -29 23 -58 19 -65 -4 -7 -3 -8 4 -4 7 4 20 -10 33 -35 12 -24 40 -72 64
-108 23 -36 55 -86 71 -111 15 -25 27 -48 26 -52 -1 -5 3 -8 8 -8 12 0 35 -49
31 -65 -2 -5 1 -7 4 -3 4 4 30 -23 57 -60 27 -37 55 -70 61 -74 7 -4 8 -8 2
-8 -5 0 -2 -5 8 -11 9 -6 15 -15 11 -20 -3 -5 -2 -8 3 -7 14 4 58 -47 61 -71
4 -24 -25 -148 -39 -166 -6 -10 -17 -77 -24 -152 -2 -19 -11 -58 -21 -86 -38
-118 -43 -134 -49 -167 -4 -19 -14 -42 -22 -51 -8 -9 -15 -27 -17 -40 -1 -13
-7 -32 -13 -43 -10 -17 -11 -17 -32 5 -11 12 -22 26 -22 31 -5 30 -21 60 -60
112 -21 28 -36 53 -33 57 2 4 0 10 -5 14 -15 9 -107 204 -121 254 -6 24 -18
55 -27 67 -8 13 -12 28 -8 34 3 5 2 10 -4 10 -5 0 -13 21 -17 48 -4 26 -10 49
-13 52 -9 7 -61 125 -61 139 0 10 -17 68 -67 219 -13 40 -21 78 -18 83 4 5 2
9 -3 9 -10 0 -26 48 -42 130 -6 30 -16 64 -21 75 -8 17 -21 69 -33 135 -1 8
-8 41 -15 72 -7 32 -11 72 -9 89 2 21 -2 34 -11 37 -10 3 -12 0 -8 -11 3 -9 2
-19 -3 -22 -10 -6 -2 -136 11 -180 5 -17 11 -49 13 -70 3 -38 39 -227 72 -385
60 -285 75 -355 88 -397 54 -179 66 -224 66 -252 0 -17 5 -31 10 -31 6 0 10
-12 10 -27 -1 -31 20 -123 37 -163 6 -14 14 -47 17 -74 4 -27 13 -63 21 -80 7
-17 18 -53 24 -81 7 -27 16 -52 22 -55 5 -4 11 -24 13 -46 1 -21 10 -54 20
-72 29 -55 -15 -37 -96 41 -27 26 -53 47 -57 47 -4 0 -21 14 -37 31 -16 17
-70 72 -120 123 -50 50 -103 110 -119 134 -15 23 -31 42 -35 42 -4 0 -29 30
-54 68 -104 150 -138 198 -156 217 -25 28 -50 80 -50 104 0 11 -11 25 -26 33
-23 12 -47 47 -104 158 -43 84 -91 206 -83 214 4 3 2 6 -4 6 -6 0 -20 55 -32
123 -12 67 -33 169 -47 227 -26 114 -30 145 -14 135 16 -10 12 12 -6 29 -9 9
-17 22 -18 29 -2 6 -6 28 -9 47 -4 19 -10 49 -13 65 -8 39 -22 129 -29 179 -3
21 -7 41 -10 45 -2 5 -9 68 -15 142 -6 74 -13 152 -15 174 -4 32 -11 170 -24
465 -4 106 -10 287 -12 372 -1 59 -5 105 -9 103 -34 -21 -54 -306 -55 -765 0
-389 5 -548 24 -705 6 -44 13 -109 16 -145 16 -160 36 -285 75 -465 6 -27 13
-72 16 -100 9 -87 24 -209 30 -242 10 -54 -12 -38 -49 35 -19 37 -50 97 -68
133 -19 36 -42 86 -53 110 -10 24 -28 67 -41 94 -12 28 -32 71 -44 97 -23 53
-25 65 -12 70 5 2 1 21 -10 42 -10 22 -19 44 -19 50 0 6 -7 24 -16 41 -17 33
-54 284 -53 360 1 28 -3 158 -7 290 -12 327 -8 664 11 820 28 241 38 310 45
320 4 6 11 35 14 65 26 211 117 501 201 640 12 19 29 55 38 80 10 25 31 60 47
79 17 18 30 40 30 47 0 8 9 19 20 26 11 7 20 16 20 20 0 5 7 16 15 26 9 9 38
45 65 79 30 37 59 63 72 65 15 2 23 10 23 23 0 25 30 56 56 58 10 1 19 7 19
13 0 11 19 29 80 77 8 7 41 29 73 50 70 47 74 64 12 63 -25 0 -45 -4 -45 -8 0
-4 -25 -15 -55 -24 -30 -10 -55 -21 -55 -26 0 -4 -4 -8 -10 -8 -5 0 -35 -16
-66 -36 -81 -52 -212 -187 -279 -289 -15 -22 -32 -44 -39 -50 -7 -5 -22 -31
-35 -57 -12 -26 -33 -63 -46 -82 -13 -19 -26 -43 -30 -55 -3 -12 -11 -21 -16
-21 -5 0 -9 -7 -9 -15 0 -8 -14 -45 -32 -82 -17 -38 -35 -77 -39 -88 -4 -11
-14 -36 -22 -55 -8 -19 -27 -80 -42 -135 -15 -55 -31 -104 -35 -110 -4 -5 -13
-35 -20 -65 -7 -30 -17 -68 -22 -85 -9 -27 -27 -116 -47 -235 -5 -25 -14 -58
-21 -75 -12 -30 -16 -50 -19 -95 -2 -51 -28 12 -34 86 -5 53 -17 95 -46 157
-22 47 -36 89 -33 94 4 4 3 5 -2 1 -5 -5 -20 8 -34 28 -13 20 -32 44 -41 54
-9 9 -40 43 -69 74 -29 31 -57 56 -62 56 -5 0 -13 6 -17 14 -4 7 -32 25 -60
40 -29 14 -53 31 -53 36 0 6 -5 10 -11 10 -5 0 -37 13 -70 29 -32 17 -59 28
-59 25 0 -3 -6 1 -14 8 -7 8 -39 20 -70 28 -50 12 -58 11 -74 -3 -10 -10 -22
-14 -26 -10 -4 4 -4 0 -1 -8 3 -9 -2 -22 -11 -30 -16 -12 -17 -12 -9 1 5 9 5
12 -1 7 -5 -5 -9 -12 -9 -15 -1 -14 -38 -76 -57 -96 -11 -12 -33 -48 -50 -81
-17 -33 -36 -67 -43 -75 -8 -8 -14 -18 -15 -22 0 -4 -2 -13 -5 -20 -24 -77
-29 -350 -7 -413 23 -66 23 -83 0 -110 -13 -14 -32 -37 -43 -52 -11 -15 -35
-42 -53 -60 -18 -18 -30 -37 -27 -43 3 -5 2 -10 -4 -10 -5 0 -11 -6 -13 -14
-3 -14 -70 -94 -140 -169 -21 -22 -38 -41 -38 -43 0 -6 -52 -64 -68 -78 -8 -6
-28 -26 -45 -45 -79 -85 -102 -102 -124 -95 -14 5 -15 4 -4 -4 11 -8 4 -20
-36 -61 -28 -28 -56 -51 -62 -51 -7 0 -10 -4 -7 -9 3 -5 -1 -15 -10 -22 -12
-10 -17 -10 -23 0 -6 10 -10 9 -14 -4 -5 -11 -3 -14 6 -9 8 5 7 2 -2 -9 -15
-19 -36 -23 -25 -5 4 7 3 8 -5 4 -6 -4 -9 -12 -6 -17 4 -5 -6 -14 -20 -19 -16
-6 -23 -14 -19 -22 5 -8 2 -9 -9 -5 -10 4 -16 2 -14 -6 1 -7 -6 -11 -17 -9
-10 2 -16 -1 -12 -6 5 -8 -134 -115 -151 -115 -4 0 -14 -8 -20 -18 -7 -9 -30
-28 -50 -40 -21 -13 -56 -37 -78 -54 -22 -16 -57 -36 -78 -44 -20 -8 -37 -19
-37 -23 0 -5 -4 -6 -10 -3 -6 3 -10 2 -10 -3 0 -5 -31 -23 -69 -41 -38 -17
-82 -42 -97 -54 -17 -13 -25 -15 -20 -7 6 12 5 12 -6 0 -7 -9 -29 -22 -48 -29
-19 -7 -55 -22 -80 -34 -25 -11 -49 -23 -55 -25 -5 -3 12 16 40 41 27 25 54
43 59 40 5 -3 6 -1 3 4 -4 6 0 16 8 23 8 7 15 9 15 4 0 -5 7 1 15 12 8 12 28
27 44 34 17 7 28 16 25 21 -3 5 3 6 12 2 11 -4 15 -2 11 4 -4 6 2 18 13 28 11
10 20 15 20 12 0 -3 45 39 99 93 54 54 101 96 104 94 3 -3 8 3 11 14 8 23 92
102 101 94 3 -4 3 1 0 10 -4 11 3 22 24 34 17 10 34 26 37 36 3 10 10 18 15
18 5 0 8 4 6 8 -1 4 11 20 26 34 16 15 29 30 30 35 1 4 6 7 12 5 5 -2 7 0 3 4
-9 8 17 57 50 92 12 14 22 31 22 38 0 8 16 44 37 81 46 86 65 128 144 313 13
30 27 57 32 58 4 2 14 19 22 39 9 22 19 32 26 27 8 -4 9 -3 5 5 -4 6 -11 9
-15 6 -13 -7 26 103 47 133 10 15 29 56 42 92 21 59 53 116 73 131 5 3 8 8 8
10 -2 13 13 49 20 49 5 0 8 3 8 8 -3 17 2 35 8 29 3 -4 22 26 42 66 19 39 40
77 46 83 27 31 45 55 45 62 0 14 82 127 91 124 5 -1 8 1 8 5 -4 22 5 36 49 82
27 28 45 52 42 53 -4 2 13 23 38 48 25 25 42 39 37 31 -5 -10 -4 -12 3 -7 7 4
12 13 12 20 0 13 103 126 115 126 3 0 16 -5 28 -11 21 -10 21 -10 -1 8 l-23
19 25 23 c13 13 29 20 36 16 6 -3 9 -3 8 2 -4 11 223 239 234 236 4 -2 8 2 8
7 0 6 11 16 25 22 14 6 25 17 25 23 0 7 8 19 17 26 15 12 16 12 8 -1 -5 -8 8
3 28 24 20 22 37 43 37 47 0 4 15 16 33 28 17 11 43 30 57 43 13 13 27 23 30
23 12 1 96 61 109 78 7 10 19 16 27 13 8 -3 13 0 11 6 -1 7 7 14 17 16 18 4
28 10 60 39 8 7 16 9 20 6 3 -4 6 -1 6 5 0 7 7 12 15 12 9 0 25 9 37 20 12 11
36 23 55 26 18 3 30 10 27 15 -3 5 1 9 8 9 7 0 42 14 77 30 36 17 71 28 78 26
8 -3 12 -2 9 2 -12 20 198 59 334 61 35 1 66 4 69 7 8 8 240 -6 276 -16z
m-235 -474 c0 -3 -4 -8 -10 -11 -5 -3 -10 -1 -10 4 0 6 5 11 10 11 6 0 10 -2
10 -4z m2695 -1200 c19 -29 27 -66 14 -66 -5 0 -9 -4 -9 -10 0 -5 5 -10 12
-10 18 0 58 -41 58 -60 0 -9 3 -20 7 -24 4 -3 8 -16 10 -28 2 -12 9 -29 16
-37 16 -20 60 -129 60 -150 0 -9 6 -22 14 -29 7 -7 13 -26 13 -41 0 -15 9 -38
20 -51 20 -23 28 -70 11 -70 -5 0 -12 12 -15 28 -4 15 -22 59 -40 97 -68 142
-88 193 -82 204 5 7 2 10 -6 9 -7 -2 -12 3 -10 11 1 7 -4 18 -12 25 -7 6 -17
29 -21 51 -4 21 -15 45 -26 53 -10 7 -19 21 -19 30 0 9 -9 28 -20 42 -21 27
-26 45 -10 35 6 -3 10 -1 10 4 0 17 8 13 25 -13z m-3695 -431 c14 -11 48 -36
75 -54 28 -19 52 -38 55 -43 3 -4 17 -9 30 -10 21 -3 26 4 46 62 12 36 25 90
29 120 7 61 13 85 20 78 2 -2 -2 -76 -10 -163 -7 -88 -11 -163 -9 -167 3 -4 2
-8 -3 -8 -4 0 -8 -39 -8 -88 0 -89 -15 -143 -49 -171 -9 -8 -16 -17 -16 -22 0
-4 -18 -34 -40 -65 -22 -32 -40 -62 -40 -68 0 -6 -16 -28 -35 -49 -19 -21 -35
-43 -35 -48 0 -6 -11 -29 -23 -52 -13 -23 -26 -53 -29 -67 -7 -28 -52 -141
-72 -180 -12 -23 -20 -49 -58 -185 -6 -22 -16 -49 -22 -60 -6 -11 -11 -27 -12
-35 -1 -8 -13 -60 -28 -115 -34 -125 -83 -369 -91 -455 -3 -36 -12 -94 -20
-130 -23 -110 -34 -172 -44 -255 -13 -111 -14 -582 0 -685 6 -47 12 -103 14
-125 2 -22 8 -57 14 -78 7 -30 6 -39 -5 -44 -19 -7 -18 -23 1 -23 8 0 15 -7
15 -15 0 -8 6 -34 14 -57 7 -24 19 -70 26 -103 7 -33 17 -65 22 -71 5 -7 11
-29 13 -49 3 -20 14 -48 25 -62 20 -25 26 -54 14 -66 -3 -3 -24 5 -45 19 -21
13 -39 22 -39 19 0 -16 -163 73 -201 110 -9 8 -21 15 -27 15 -7 0 -12 4 -12 9
0 5 -10 12 -22 15 -13 3 -57 33 -98 67 -41 33 -91 72 -110 87 -68 54 -174 167
-216 232 -16 25 -31 47 -34 50 -3 3 -16 25 -29 50 -13 25 -42 69 -63 98 -21
29 -36 56 -34 61 3 5 -1 11 -9 15 -8 3 -15 14 -15 25 0 11 -6 26 -14 34 -8 7
-30 46 -50 86 -31 63 -48 115 -106 324 -6 20 -15 37 -19 37 -5 0 -19 44 -32
98 -20 80 -24 122 -23 242 0 129 18 296 34 310 5 5 6 19 12 112 2 25 6 44 10
42 4 -3 5 1 2 9 -2 7 0 33 5 58 7 31 7 45 -2 51 -14 8 -29 0 -22 -13 4 -5 -1
-9 -10 -9 -9 0 -13 -5 -10 -11 11 -16 -4 -61 -17 -53 -7 5 -8 3 -2 -7 10 -16
6 -49 -8 -66 -5 -7 -20 -62 -32 -123 -12 -61 -24 -108 -27 -106 -2 2 -4 -14
-5 -37 -1 -50 -11 -103 -25 -128 -5 -11 -12 -56 -15 -102 -8 -130 -8 -738 -1
-782 6 -29 5 -37 -4 -28 -6 6 -12 22 -12 36 -1 14 -5 23 -9 20 -5 -2 -8 4 -8
14 0 10 -7 31 -15 47 -8 15 -26 69 -40 120 -14 50 -34 117 -45 149 -64 182
-80 900 -23 1037 3 8 5 22 4 30 -2 19 34 122 40 115 3 -2 5 6 6 18 1 50 3 58
15 51 7 -4 8 -3 4 4 -4 7 0 22 8 34 9 12 16 19 16 15 0 -5 14 2 32 14 18 13
28 17 23 8 -4 -7 6 1 24 20 17 19 31 31 31 26 0 -4 9 4 21 19 20 26 77 62 91
58 4 -1 5 4 2 12 -3 8 8 22 28 34 18 12 42 33 53 47 41 54 80 87 91 77 4 -4 4
-1 0 6 -5 9 17 36 66 82 40 38 82 78 94 89 27 27 94 72 94 64 0 -3 9 2 20 12
10 9 19 20 18 24 -3 12 72 82 82 76 6 -4 9 -2 8 2 -2 5 12 24 30 42 17 18 32
39 32 47 0 8 7 14 15 14 8 0 15 5 15 12 0 6 20 44 45 84 25 39 45 75 45 78 0
12 45 76 57 80 6 3 24 -14 40 -37 35 -53 49 -67 62 -67 6 0 11 -7 11 -15 0 -8
5 -15 10 -15 6 0 19 -9 30 -20 11 -11 20 -17 20 -13 0 3 9 -2 20 -12 11 -10
17 -22 13 -28 -3 -5 -1 -7 4 -4 6 4 23 -5 38 -19 23 -21 34 -25 62 -19 18 3
31 10 28 15 -3 5 5 26 18 47 57 93 81 200 73 331 l-7 103 73 -73 c40 -41 84
-82 98 -93z m-930 -519 c0 -2 -7 -9 -15 -16 -13 -11 -14 -10 -9 4 5 14 24 23
24 12z m1149 -128 c2 -147 8 -224 16 -239 5 -7 0 -18 -11 -26 -15 -11 -19 -25
-17 -63 1 -28 -1 -50 -5 -50 -4 0 -8 -14 -9 -31 -1 -17 -9 -44 -18 -61 -8 -17
-15 -37 -15 -45 0 -7 -5 -13 -11 -13 -6 0 -9 -7 -6 -15 4 -8 2 -17 -3 -20 -6
-4 -10 -15 -10 -26 0 -11 -7 -22 -15 -25 -8 -4 -15 -12 -15 -19 0 -16 -29 -78
-61 -130 -28 -46 -47 -80 -84 -152 -15 -28 -40 -65 -56 -83 -16 -17 -30 -35
-30 -41 -3 -18 -5 -24 -21 -55 -9 -17 -24 -36 -32 -43 -20 -17 -21 -2 -5 84 6
33 13 78 15 100 3 22 14 78 24 124 10 47 16 89 14 93 -3 4 -2 8 3 8 4 0 9 12
9 28 2 41 33 154 49 179 8 12 15 33 15 45 0 47 91 248 113 248 8 0 8 3 0 11
-8 8 0 31 26 83 21 40 46 96 56 124 11 29 23 52 27 52 4 0 8 5 8 12 0 13 29
48 41 48 4 0 8 -46 8 -102z m-2061 -616 c2 -12 -1 -22 -6 -22 -9 0 -10 -7 -13
-55 -1 -13 -5 -23 -9 -20 -15 9 -19 -55 -25 -386 -5 -231 -3 -373 5 -459 7
-69 16 -165 20 -215 4 -49 10 -101 13 -115 5 -26 16 -110 22 -170 2 -19 10
-73 19 -119 8 -47 12 -89 9 -94 -3 -6 -1 -7 5 -3 7 4 12 1 12 -8 0 -9 9 -33
21 -55 11 -22 17 -46 13 -52 -4 -7 -3 -9 3 -6 8 5 35 -57 35 -83 1 -3 9 -11
19 -17 9 -7 25 -34 35 -60 10 -27 33 -72 51 -100 18 -29 29 -53 25 -53 -4 0
-2 -4 4 -8 7 -4 19 -24 28 -45 12 -31 13 -42 3 -57 -9 -16 -8 -26 5 -52 14
-29 22 -48 27 -70 1 -4 15 -21 32 -39 16 -17 29 -37 29 -44 0 -8 7 -21 16 -29
8 -9 12 -20 9 -26 -4 -6 -3 -9 2 -8 4 2 26 -11 47 -27 26 -20 41 -26 43 -18 4
10 10 10 26 2 17 -9 19 -9 11 1 -7 7 -9 24 -4 46 5 19 4 32 -1 28 -5 -3 -10 3
-10 13 -1 10 -3 34 -5 53 -3 35 -3 35 13 12 9 -13 18 -38 20 -55 3 -33 14 -57
122 -278 35 -69 63 -133 65 -141 1 -9 8 -23 15 -32 7 -9 11 -25 8 -36 -3 -11
-1 -18 4 -14 5 3 16 -12 25 -33 19 -43 14 -35 89 -168 31 -55 54 -108 51 -118
-2 -9 -1 -15 4 -12 7 4 127 -159 139 -189 11 -27 50 -77 147 -190 33 -40 63
-77 65 -83 2 -7 37 -46 78 -87 40 -42 68 -76 62 -76 -7 0 -24 12 -39 27 -15
15 -27 26 -27 24 0 -1 -9 1 -20 5 -31 12 -65 41 -57 49 4 5 2 5 -5 1 -6 -3
-43 9 -82 28 -38 18 -73 31 -77 27 -4 -3 -4 2 -1 12 4 10 3 16 -2 12 -5 -3
-12 -1 -16 5 -3 6 -22 17 -42 25 -31 13 -67 38 -113 77 -8 7 -31 24 -50 37
-19 13 -39 29 -45 35 -5 6 -31 28 -56 48 -64 51 -122 113 -161 172 -18 27 -47
66 -65 85 -18 20 -33 41 -33 47 0 6 -22 39 -49 72 -26 34 -54 75 -61 91 -7 17
-16 31 -21 31 -4 0 -11 10 -14 23 -14 47 -87 159 -97 149 -9 -9 5 -70 23 -97
3 -5 16 -43 28 -83 12 -40 31 -89 41 -108 11 -19 20 -42 20 -52 0 -9 9 -28 20
-42 11 -14 20 -31 20 -38 0 -7 9 -22 20 -34 11 -12 20 -28 20 -35 0 -8 11 -31
25 -51 28 -42 14 -61 -16 -21 -9 13 -55 62 -101 109 -105 107 -198 229 -249
328 -13 23 -26 42 -29 42 -9 0 -100 136 -100 149 0 5 -4 11 -9 13 -5 2 -23 32
-41 68 -18 36 -39 73 -47 82 -8 9 -12 22 -7 29 4 8 3 10 -4 5 -7 -4 -12 -2
-12 5 0 17 -40 100 -58 121 -7 9 -11 22 -6 29 4 7 3 10 -3 6 -6 -4 -24 40 -43
106 -19 62 -38 117 -43 124 -5 7 -11 27 -13 45 -2 18 -16 76 -29 128 -44 168
-56 327 -57 750 -1 247 3 399 10 425 6 22 18 96 27 165 22 168 54 350 67 373
7 14 7 17 -1 13 -15 -9 -14 -4 4 30 8 16 15 36 16 44 1 28 54 102 84 118 17 9
32 20 35 23 3 3 21 11 40 19 19 7 39 17 45 22 14 13 30 4 33 -20z m2098 -240
c5 -32 110 -314 134 -361 4 -9 38 -79 76 -156 37 -77 72 -147 79 -155 37 -46
24 -49 -56 -14 -74 31 -89 34 -178 34 -133 0 -236 -33 -338 -108 -31 -23 -32
-23 -95 -8 -102 26 -119 35 -112 60 3 11 17 32 30 47 13 14 24 30 24 37 0 6
14 27 30 46 32 35 120 163 120 173 0 3 22 35 48 72 65 90 108 161 117 191 4
14 13 32 20 40 6 8 22 35 34 60 42 83 46 88 53 84 4 -3 10 -21 14 -42z m5347
13 c10 -14 15 -31 11 -38 -4 -6 -4 -9 1 -5 7 7 59 -64 63 -85 1 -4 8 -15 17
-24 9 -8 14 -22 11 -30 -3 -8 -2 -12 3 -9 4 3 16 -13 26 -35 10 -22 27 -50 37
-61 10 -12 16 -28 14 -35 -3 -7 -2 -13 3 -13 5 0 16 -28 26 -62 10 -35 22 -74
28 -88 6 -14 12 -32 13 -40 2 -8 14 -58 28 -110 23 -84 45 -197 50 -256 2 -11
5 -25 9 -31 36 -57 30 -697 -8 -958 -9 -60 -54 -283 -70 -346 -9 -35 -19 -80
-22 -99 -2 -19 -17 -78 -33 -130 -16 -52 -31 -111 -35 -130 -4 -19 -13 -42
-20 -50 -7 -8 -21 -37 -31 -65 -10 -27 -26 -63 -34 -80 -33 -62 -160 -252
-194 -290 -20 -22 -45 -53 -55 -70 -10 -16 -27 -37 -37 -46 -11 -8 -42 -41
-70 -72 -51 -54 -144 -107 -191 -107 -10 0 -27 -6 -38 -13 -11 -8 -55 -26 -98
-41 -42 -14 -85 -30 -95 -35 -26 -13 -110 -41 -187 -63 -38 -11 -89 -29 -112
-40 -24 -10 -60 -22 -80 -25 -36 -6 -37 -5 -23 13 22 28 76 94 110 133 17 19
30 38 30 43 0 5 27 49 60 97 33 49 60 93 60 98 0 5 17 45 38 88 22 44 47 109
57 145 9 36 23 76 30 90 7 14 18 65 25 115 6 49 15 94 20 100 5 6 13 39 19 73
5 34 13 67 16 72 4 6 3 19 0 30 -5 16 -10 18 -26 10 -10 -6 -19 -15 -19 -21 0
-5 -25 -62 -55 -125 -30 -64 -55 -118 -55 -120 0 -13 -75 -154 -82 -154 -4 0
-8 -6 -8 -14 0 -18 -110 -184 -148 -224 -111 -117 -157 -162 -168 -162 -8 0
-11 -6 -8 -13 5 -14 -82 -104 -91 -95 -7 7 27 116 49 156 26 48 56 118 56 130
0 6 8 17 18 24 11 7 24 30 31 51 7 20 17 37 22 37 5 0 9 6 9 14 0 8 3 16 8 18
4 2 19 26 33 53 31 60 52 98 59 105 5 5 26 44 92 170 46 88 118 248 118 263 0
14 63 141 74 149 5 3 11 16 13 28 2 12 14 45 28 74 14 29 25 57 25 62 0 5 15
19 33 31 53 36 91 76 112 116 11 20 23 37 27 37 5 0 8 7 8 15 0 8 4 15 9 15 5
0 11 13 14 29 3 16 12 35 20 42 7 8 14 18 14 22 2 24 27 66 36 60 5 -3 7 -2 4
4 -8 13 41 137 63 160 9 10 17 23 18 28 1 6 6 10 11 10 5 0 13 4 18 9 5 5 3 6
-4 2 -8 -4 -13 -2 -13 6 0 17 33 112 41 118 4 3 12 24 18 48 7 23 15 42 19 42
4 0 8 12 8 28 1 15 6 79 14 142 7 63 13 133 14 155 2 22 4 42 5 45 1 3 4 12 7
20 2 8 15 54 28 103 14 48 30 131 37 185 6 53 16 102 21 109 10 12 22 153 33
376 4 75 10 137 14 137 3 0 14 -12 24 -25z m-2990 -195 c2 0 26 -21 53 -46 56
-52 64 -59 119 -100 22 -16 45 -34 50 -40 11 -13 240 -164 249 -164 3 0 25
-13 49 -30 25 -16 50 -30 56 -30 6 0 11 -4 11 -10 0 -5 6 -10 14 -10 8 0 16
-7 20 -15 4 -10 -3 -17 -22 -20 -104 -22 -186 -61 -254 -123 -21 -19 -40 -33
-42 -31 -2 2 -17 27 -34 54 -16 28 -51 86 -79 130 -92 150 -227 421 -216 438
3 5 1 7 -4 4 -6 -4 -13 5 -16 21 l-5 27 23 -28 c13 -15 26 -27 28 -27z m-132
-440 c35 -30 73 -65 86 -76 13 -12 39 -32 58 -45 19 -13 35 -28 35 -32 0 -5 5
-5 10 -2 6 3 10 2 10 -4 0 -6 21 -22 48 -37 85 -49 132 -87 124 -98 -23 -30
-52 -122 -67 -211 -21 -123 -16 -346 10 -398 8 -17 23 -58 31 -92 30 -115 104
-231 181 -284 87 -59 253 -80 388 -48 202 48 287 158 355 462 25 113 30 243
13 404 -15 146 -13 151 37 151 14 0 66 -16 115 -34 71 -27 90 -38 88 -53 -22
-196 -47 -310 -84 -383 -16 -32 -29 -64 -29 -69 0 -6 -13 -39 -29 -73 -16 -35
-42 -92 -57 -128 -15 -36 -32 -68 -38 -72 -6 -4 -7 -8 -3 -8 5 0 0 -12 -11
-27 -11 -16 -23 -39 -27 -53 -7 -23 -54 -99 -159 -255 -22 -33 -68 -97 -103
-141 -35 -45 -63 -86 -63 -91 0 -4 -9 -14 -21 -21 -14 -9 -19 -21 -17 -40 2
-22 10 -28 43 -35 96 -21 378 20 550 80 157 55 168 55 123 -3 -13 -15 -30 -41
-38 -56 -8 -15 -29 -42 -45 -60 -17 -18 -41 -49 -55 -68 -13 -19 -33 -43 -45
-53 -11 -10 -56 -51 -100 -91 -120 -110 -244 -216 -253 -216 -5 0 -17 -8 -28
-19 -34 -31 -338 -181 -368 -181 -7 0 -33 -11 -57 -24 -24 -14 -71 -32 -104
-41 -33 -9 -89 -27 -125 -40 -59 -20 -168 -49 -340 -89 -169 -39 -666 -60
-940 -39 -277 21 -685 87 -790 128 -19 7 -71 25 -115 39 -156 49 -260 88 -286
107 -15 10 -32 19 -38 19 -21 0 -153 80 -230 138 -41 31 -104 77 -140 102 -36
25 -99 78 -140 118 -40 39 -77 72 -81 72 -15 0 -145 218 -136 227 2 3 28 -2
58 -10 29 -9 107 -30 173 -48 66 -18 125 -35 130 -38 6 -3 15 -6 21 -7 6 -1
36 -9 65 -17 152 -42 181 -24 117 72 -13 19 -28 43 -35 54 -6 11 -16 23 -22
26 -11 7 -181 344 -181 361 0 5 -4 18 -10 28 -16 28 -97 283 -109 342 -57 284
-98 690 -70 690 4 0 22 -8 41 -17 18 -10 34 -18 35 -19 1 0 -4 -69 -12 -153
-15 -158 -13 -235 10 -356 63 -327 134 -426 365 -506 54 -19 74 -20 163 -14
111 8 138 18 223 82 52 39 84 74 119 128 32 49 96 245 105 320 12 99 12 253
-1 298 -11 42 -4 63 13 34 17 -31 119 -127 174 -163 29 -19 58 -41 64 -49 17
-21 37 -19 50 4 10 19 5 45 -41 221 -4 19 -9 46 -9 59 0 25 27 -1 179 -164 28
-30 115 -109 203 -184 26 -21 57 -42 68 -46 11 -3 20 -11 20 -16 0 -6 12 -16
28 -22 42 -19 121 -69 155 -99 17 -14 48 -32 69 -39 21 -7 38 -15 38 -20 0 -4
12 -10 27 -14 14 -3 71 -28 126 -56 109 -54 119 -56 137 -34 13 15 4 55 -27
125 -28 61 -28 114 -1 172 56 117 137 344 151 424 7 38 92 273 118 328 10 22
21 54 25 73 3 18 10 33 15 33 5 0 6 7 2 16 -9 24 14 10 88 -56z m-3261 -1999
c0 -4 18 -14 40 -21 22 -7 45 -19 51 -27 6 -7 19 -13 28 -13 9 0 36 -10 61
-21 24 -11 62 -22 85 -24 22 -2 72 -7 110 -11 39 -5 75 -8 81 -9 17 -1 44 -26
44 -41 0 -7 9 -29 20 -49 11 -20 20 -42 20 -50 0 -8 22 -53 50 -100 27 -47 52
-95 55 -106 4 -10 10 -19 15 -19 5 0 22 -24 39 -54 17 -29 38 -59 46 -66 19
-16 9 -32 -13 -20 -9 5 -36 14 -59 20 -24 6 -43 15 -43 20 0 6 -6 10 -14 10
-33 0 -248 142 -321 212 -22 21 -43 38 -47 38 -5 0 -8 7 -8 16 0 8 -4 13 -9
10 -12 -8 -211 222 -211 243 0 5 -13 22 -30 39 -35 37 -40 58 -10 42 11 -6 20
-14 20 -19z m4495 -623 c43 -95 67 -205 69 -313 l1 -100 -55 -7 c-167 -24
-248 -60 -362 -160 -68 -59 -68 -59 -69 -31 -1 15 -2 37 -3 48 -3 51 15 179
30 213 9 20 18 43 20 51 1 8 7 17 12 20 5 3 16 20 25 37 9 17 53 63 99 101 83
71 158 146 158 159 0 8 32 33 43 34 4 0 19 -24 32 -52z m1500 -555 c-16 -21
-37 -47 -47 -58 -80 -88 -118 -125 -150 -144 -96 -58 -628 -124 -628 -78 0 7
-9 23 -20 35 -14 15 -16 22 -8 23 7 0 22 3 33 5 11 3 85 15 165 27 80 12 150
25 155 29 6 3 28 9 50 13 37 7 104 33 150 57 10 6 42 16 70 23 42 9 53 9 64
-2 10 -11 16 -11 27 -2 11 9 14 8 14 -4 0 -9 4 -18 9 -21 5 -4 8 0 7 6 -3 24
-17 38 -38 38 -12 0 -19 3 -15 6 3 3 8 5 11 5 4 -1 19 10 34 24 15 14 34 25
42 26 8 0 31 11 50 24 48 31 60 15 25 -32z m-1635 1 c-17 -15 -33 -25 -35 -22
-6 6 8 24 30 36 35 20 38 13 5 -14z m213 12 c7 -18 -24 -31 -34 -14 -4 6 -5
16 -3 20 8 13 31 9 37 -6z m7 -36 c0 -5 -2 -10 -4 -10 -3 0 -8 5 -11 10 -3 6
-1 10 4 10 6 0 11 -4 11 -10z m-279 -46 c-11 -15 -21 -23 -21 -18 0 14 31 56
37 50 3 -3 -4 -17 -16 -32z m556 -40 c12 -8 34 -14 49 -14 35 0 84 -36 84 -62
0 -12 2 -19 5 -16 7 6 65 -49 65 -62 0 -4 7 -13 15 -20 16 -14 21 -55 5 -45
-5 3 -7 0 -4 -9 3 -9 -5 -26 -20 -41 -14 -14 -26 -32 -26 -40 0 -17 -109 -129
-118 -121 -3 3 -13 -4 -23 -16 -11 -11 -19 -17 -19 -13 0 4 -8 1 -18 -8 -23
-21 -96 -47 -132 -47 -22 0 -30 8 -50 50 -13 28 -26 50 -30 50 -16 0 -104 126
-101 145 1 11 14 46 28 77 23 52 30 59 66 69 41 11 54 10 114 -9 82 -26 84 77
3 146 -13 11 -7 12 35 7 28 -4 60 -13 72 -21z m-329 -49 c51 6 55 5 43 -9 -7
-9 -20 -16 -27 -16 -22 0 -46 -45 -39 -73 9 -33 -12 -98 -28 -91 -7 3 -20 16
-30 30 -17 23 -17 27 -3 49 22 34 20 50 -10 72 -23 17 -24 21 -13 46 l12 27
20 -21 c17 -18 26 -20 75 -14z m152 15 c0 -5 -5 -10 -11 -10 -5 0 -7 5 -4 10
3 6 8 10 11 10 2 0 4 -4 4 -10z m-1820 -55 c146 -9 368 -34 440 -51 36 -8 103
-33 150 -56 75 -35 83 -42 66 -52 -149 -90 -306 -229 -406 -362 -41 -54 -78
-101 -81 -104 -3 -3 -25 -36 -48 -75 -23 -38 -59 -92 -81 -120 -37 -47 -70
-108 -139 -257 l-30 -66 -63 -4 c-146 -8 -308 10 -468 51 -133 34 -314 100
-330 120 -5 6 -51 32 -105 59 -16 8 -43 25 -60 36 -16 12 -46 29 -65 40 -102
53 -169 92 -204 115 -21 14 -48 32 -60 38 -12 7 -61 50 -110 96 l-90 84 38 33
c59 52 118 96 156 115 19 9 44 26 55 36 11 10 81 49 155 87 74 38 169 87 210
109 153 81 250 101 600 123 96 7 177 14 180 17 3 2 48 2 100 -1 52 -3 138 -8
190 -11z m1317 9 c-3 -3 -12 -4 -19 -1 -8 3 -5 6 6 6 11 1 17 -2 13 -5z m93
-24 c0 -5 -7 -7 -15 -4 -8 4 -15 8 -15 10 0 2 7 4 15 4 8 0 15 -4 15 -10z m25
-10 c3 -5 1 -10 -4 -10 -6 0 -11 5 -11 10 0 6 2 10 4 10 3 0 8 -4 11 -10z m45
-10 c0 -5 -7 -10 -15 -10 -8 0 -15 5 -15 10 0 6 7 10 15 10 8 0 15 -4 15 -10z
m795 -190 c-3 -6 0 -10 7 -10 10 0 10 -2 -1 -9 -8 -5 -9 -11 -3 -15 18 -11 9
-53 -16 -76 -12 -12 -27 -18 -34 -14 -7 4 -8 3 -4 -5 15 -24 -158 -163 -178
-143 -4 3 -11 0 -16 -8 -6 -9 -32 -16 -78 -18 -63 -4 -70 -2 -74 16 -5 16 0
22 21 27 61 15 158 60 186 87 16 15 37 30 45 33 9 3 22 15 30 26 8 12 26 34
39 48 12 14 32 44 43 65 17 33 22 37 30 23 5 -10 6 -22 3 -27z m-963 -57 c32
-14 58 -29 58 -33 0 -4 10 -11 23 -14 18 -6 12 -10 -32 -22 -30 -8 -60 -19
-68 -25 -7 -6 -21 -8 -30 -5 -10 4 -14 4 -10 0 3 -4 -15 -18 -41 -32 -26 -14
-49 -28 -52 -31 -3 -3 -27 -24 -55 -46 -58 -46 -114 -107 -133 -142 -13 -24
-13 -24 10 -12 13 7 48 28 78 48 62 41 176 90 267 116 86 25 213 26 237 3 10
-10 22 -18 28 -18 6 0 9 -3 5 -6 -3 -4 0 -13 8 -21 52 -51 59 -250 13 -341
-43 -83 -182 -252 -208 -252 -6 0 -10 -6 -8 -12 9 -26 -126 -109 -242 -148
-36 -12 -74 -26 -85 -31 -37 -15 -100 -28 -165 -34 -165 -13 -209 -18 -268
-31 -35 -8 -68 -12 -73 -8 -5 3 -9 0 -9 -5 0 -19 -40 -12 -41 7 -8 134 10 242
56 347 20 44 41 92 47 108 5 15 13 27 18 27 4 0 10 8 13 18 7 19 36 66 82 133
35 51 227 247 245 251 16 4 32 16 85 63 32 29 36 38 25 45 -19 12 -20 12 -82
-4 -85 -23 -130 -40 -158 -62 -8 -6 -26 -14 -40 -17 -41 -10 -233 -209 -289
-300 -13 -21 -27 -34 -34 -30 -6 4 -8 0 -4 -10 3 -8 -3 -34 -14 -56 -11 -23
-22 -54 -25 -70 -4 -16 -15 -39 -25 -50 -20 -21 -25 -42 -55 -211 -13 -73 -15
-120 -9 -205 4 -60 8 -126 9 -145 1 -19 4 -42 8 -50 6 -17 20 -71 37 -145 13
-57 33 -105 42 -105 4 0 10 -12 13 -26 4 -15 18 -41 30 -58 13 -17 32 -47 41
-66 10 -19 23 -38 29 -42 6 -4 8 -8 4 -8 -4 0 0 -9 10 -20 9 -11 26 -35 37
-53 52 -86 96 -145 111 -151 34 -13 7 -14 -42 -1 -62 16 -87 31 -100 59 -5 11
-14 20 -20 19 -23 -4 -254 253 -254 283 0 8 -4 14 -9 14 -5 0 -13 10 -17 23
-4 12 -10 24 -13 27 -15 12 -60 141 -71 201 -6 35 -15 88 -20 118 -14 77 -12
125 7 211 9 41 17 91 18 111 1 30 -2 35 -16 32 -19 -5 -99 -86 -99 -101 0 -5
-13 -27 -28 -48 -20 -28 -31 -57 -36 -98 -3 -33 -11 -64 -15 -70 -5 -6 -11
-22 -13 -36 -1 -14 -7 -24 -13 -23 -14 4 -17 123 -4 139 6 7 12 40 15 74 3 40
15 83 34 123 40 85 79 150 96 160 8 4 14 17 14 27 0 11 9 29 20 40 11 11 20
22 20 26 0 3 26 37 58 77 31 39 64 80 72 91 51 66 272 246 301 246 7 0 20 6
28 14 9 8 41 26 71 42 30 15 66 36 79 46 13 10 34 18 47 18 13 0 24 5 24 11 0
6 7 9 14 6 9 -4 17 2 21 13 8 24 77 80 99 80 9 0 16 4 16 9 0 4 35 14 78 21
42 7 81 16 85 20 18 16 84 8 139 -17z m973 -170 c-5 -37 -16 -56 -42 -83 -20
-19 -33 -29 -29 -23 5 9 2 11 -8 7 -9 -3 -14 -10 -11 -14 3 -5 -25 -19 -62
-31 -86 -29 -236 -34 -241 -8 -2 13 10 17 70 22 59 4 86 12 138 40 35 20 68
33 72 31 5 -3 7 -1 6 4 -3 9 91 101 105 102 5 0 5 -21 2 -47z m-77 -207 c-9
-8 -19 -12 -23 -8 -5 4 -5 2 -1 -5 11 -20 -102 -123 -135 -123 -5 0 -12 -7
-15 -15 -4 -8 -10 -15 -15 -15 -4 0 -31 -14 -59 -30 -28 -17 -49 -26 -45 -20
3 6 0 7 -9 4 -9 -3 -13 -11 -9 -18 3 -6 3 -8 -2 -4 -4 4 -21 0 -37 -8 -17 -9
-32 -13 -35 -11 -8 8 34 77 42 69 5 -4 6 -2 3 3 -3 6 -1 42 6 80 l11 70 95 6
c88 5 192 30 215 50 16 16 29 -8 13 -25z"/>
<path d="M4246 10457 c3 -10 9 -15 12 -12 3 3 0 11 -7 18 -10 9 -11 8 -5 -6z"/>
<path d="M8200 10296 c0 -2 8 -10 18 -17 15 -13 16 -12 3 4 -13 16 -21 21 -21
13z"/>
<path d="M8520 10046 c0 -2 8 -10 18 -17 15 -13 16 -12 3 4 -13 16 -21 21 -21
13z"/>
<path d="M3456 9973 c-6 -14 -5 -15 5 -6 7 7 10 15 7 18 -3 3 -9 -2 -12 -12z"/>
<path d="M3160 9671 c0 -6 4 -13 10 -16 6 -3 7 1 4 9 -7 18 -14 21 -14 7z"/>
<path d="M8505 9659 c-4 -6 -5 -12 -2 -15 2 -3 7 2 10 11 7 17 1 20 -8 4z"/>
<path d="M8800 9556 c0 -2 7 -9 15 -16 9 -7 15 -8 15 -2 0 5 -7 12 -15 16 -8
3 -15 4 -15 2z"/>
<path d="M2945 9421 c-3 -5 -2 -12 3 -15 5 -3 9 1 9 9 0 17 -3 19 -12 6z"/>
<path d="M9166 8477 c3 -10 9 -15 12 -12 3 3 0 11 -7 18 -10 9 -11 8 -5 -6z"/>
<path d="M2426 7993 c-6 -14 -5 -15 5 -6 7 7 10 15 7 18 -3 3 -9 -2 -12 -12z"/>
<path d="M2118 7623 c7 -3 16 -2 19 1 4 3 -2 6 -13 5 -11 0 -14 -3 -6 -6z"/>
<path d="M10125 7361 c-3 -5 -2 -12 3 -15 5 -3 9 1 9 9 0 17 -3 19 -12 6z"/>
<path d="M3615 9749 c-4 -6 -5 -12 -2 -15 2 -3 7 2 10 11 7 17 1 20 -8 4z"/>
<path d="M3636 9743 c-6 -14 -5 -15 5 -6 7 7 10 15 7 18 -3 3 -9 -2 -12 -12z"/>
<path d="M3443 9545 c0 -8 4 -12 9 -9 5 3 6 10 3 15 -9 13 -12 11 -12 -6z"/>
<path d="M6352 6380 c0 -14 2 -19 5 -12 2 6 2 18 0 25 -3 6 -5 1 -5 -13z"/>
<path d="M2675 6989 c-4 -6 -5 -12 -2 -15 2 -3 7 2 10 11 7 17 1 20 -8 4z"/>
<path d="M5467 4323 c-13 -13 -7 -49 12 -69 32 -35 151 -86 261 -113 208 -50
493 -23 674 65 74 35 88 48 89 86 2 32 1 33 -39 36 -29 2 -65 -6 -115 -27
-165 -67 -204 -75 -354 -75 -159 -1 -275 22 -374 75 -52 28 -137 40 -154 22z"/>
<path d="M3410 4339 c0 -8 10 -20 23 -28 l22 -14 -20 24 c-11 13 -21 26 -22
28 -2 2 -3 -2 -3 -10z"/>
</g>
</svg>
